<svg width="27" height="35" fill="none" xmlns="http://www.w3.org/2000/svg"><path d="M13.643.026L13.5.01 0 1.418v24.605l13.5 7.988L27 26.023V1.418L13.643.026zm11.591 25L13.5 31.968 1.766 25.026V14.94l11.685 6.916.02 1.253-8.017-4.744-.011 1.226 8.046 4.808.02 1.287-8.045-4.758-.01 1.225 8.046 4.809 8.124-4.833V16.92l3.62-2.15-.01 10.256zm0-11.564l-3.22 1.88-1.482.876-7.065-4.187-.011 1.225 6.04 3.572-.053.032-.13.075-.86.492-4.986-2.948-.011 1.226 3.936 2.328-.933.609-.021.012-2.971-1.741-.011 1.225 1.947 1.134-1.988 1.187-11.618-6.872 11.638-6.958 11.8 6.833zm0-1.225L13.44 5.321l-11.674 6.91V3L13.5 1.774 25.234 3v9.237z"/></svg>