<svg width="20" height="21" fill="none" xmlns="http://www.w3.org/2000/svg"><path clip-rule="evenodd" d="M8.1 13.566v6.221a.503.503 0 01-.6.502H2.9a2.882 2.882 0 01-2.128-.919A2.901 2.901 0 010 17.178V3.23a3.019 3.019 0 01.949-2.1A2.998 2.998 0 013.1.32h4.4a.859.859 0 01.7.603v6.321a.653.653 0 01-.6.602H3.2a1.226 1.226 0 011.2-1.204h2.4V1.625H2.9c-.462.018-.9.218-1.217.555A1.78 1.78 0 001.2 3.431V17.48a1.801 1.801 0 001.202 1.61c.224.079.461.111.698.096h3.7v-5.017H4.3a1.218 1.218 0 01-1.2-1.204h4.4a.649.649 0 01.6.602zm1.3-3.813h8.5l-2.1-2.007.9-.903 3.1 3.11a.754.754 0 010 .904l-3.1 3.11-.9-.903 2.1-2.107H9.4V9.753z"/></svg>