<svg width="16" height="17" fill="none" xmlns="http://www.w3.org/2000/svg"><g clip-path="url(#clip0_88:473)"><path d="M7.984.073c1.334 0 2.422.016 3.266.047.719.031 1.36.156 1.922.375.541.208 1.01.51 1.406.906.396.396.698.865.906 1.406.22.563.344 1.204.375 1.922.032.844.047 1.933.047 3.266s-.015 2.422-.047 3.266c-.03.718-.156 1.359-.375 1.921a3.987 3.987 0 01-.906 1.407 3.987 3.987 0 01-1.406.906c-.563.219-1.203.344-1.922.375-.844.031-1.932.047-3.266.047a91.88 91.88 0 01-3.265-.047c-.719-.031-1.36-.156-1.922-.375a3.987 3.987 0 01-1.406-.906 3.987 3.987 0 01-.907-1.407C.266 12.62.141 11.98.11 11.261a91.735 91.735 0 01-.046-3.266A92.7 92.7 0 01.11 4.729c.032-.718.157-1.36.375-1.922.209-.541.51-1.01.907-1.406A3.987 3.987 0 012.797.495C3.359.276 4 .15 4.719.12A91.733 91.733 0 017.984.073zm0 1.031c-1.385 0-2.515.016-3.39.047a5.023 5.023 0 00-1.563.297 2.853 2.853 0 00-1.594 1.594c-.177.479-.276 1-.296 1.562a98.83 98.83 0 00-.047 3.39c0 1.386.015 2.517.047 3.392.02.562.12 1.083.296 1.562.313.75.844 1.281 1.594 1.594.48.177 1 .276 1.563.297.875.03 2.005.046 3.39.046 1.386 0 2.516-.015 3.391-.046a5.015 5.015 0 001.563-.297 2.852 2.852 0 001.593-1.594c.177-.48.276-1 .297-1.563.031-.874.047-2.005.047-3.39 0-1.386-.016-2.516-.047-3.39a5.015 5.015 0 00-.297-1.563 2.853 2.853 0 00-1.594-1.594c-.479-.177-1-.276-1.562-.297a98.803 98.803 0 00-3.39-.047zm0 10.063c.875 0 1.623-.31 2.243-.93.62-.62.93-1.367.93-2.242s-.31-1.623-.93-2.242a3.056 3.056 0 00-2.243-.93c-.875 0-1.622.31-2.242.93-.62.62-.93 1.367-.93 2.242s.31 1.622.93 2.242c.62.62 1.367.93 2.242.93zm0-7.235c1.125 0 2.084.396 2.875 1.188.792.792 1.188 1.75 1.188 2.875s-.396 2.083-1.188 2.875c-.791.792-1.75 1.187-2.875 1.187s-2.083-.396-2.875-1.187c-.791-.792-1.187-1.75-1.187-2.875s.396-2.083 1.187-2.875c.792-.792 1.75-1.188 2.875-1.188zm5.188-.156c0 .26-.094.482-.281.664a.949.949 0 01-.688.274.904.904 0 01-.664-.274.904.904 0 01-.273-.664c0-.27.09-.5.273-.687a.891.891 0 01.664-.282.93.93 0 01.68.29.93.93 0 01.289.68z"/></g><defs><clipPath id="clip0_88:473"><path fill="#fff" transform="translate(0 .01)" d="M0 0h16v16H0z"/></clipPath></defs></svg>