<svg width="20" height="21" fill="none" xmlns="http://www.w3.org/2000/svg"><g clip-path="url(#clip0_153:253)" fill="#000"><path d="M17.9 9.753H9.4v1.204h8.5l-2.1 2.107.9.903 3.1-3.11a.754.754 0 000-.904l-3.1-3.11-.9.903 2.1 2.007zM8.1 19.787v-6.221a.653.653 0 00-.6-.602H3.1a1.226 1.226 0 001.2 1.204h2.5v5.017H3.1a1.784 1.784 0 01-1.728-1.02 1.801 1.801 0 01-.172-.686V3.431a1.78 1.78 0 01.483-1.25A1.767 1.767 0 012.9 1.624h3.9v5.017H4.4a1.218 1.218 0 00-1.2 1.204h4.4a.649.649 0 00.6-.602V.923A.863.863 0 007.5.32H3.1a2.99 2.99 0 00-2.151.81A3.01 3.01 0 000 3.23v13.948a2.91 2.91 0 00.772 2.192 2.89 2.89 0 002.128.919h4.6a.499.499 0 00.6-.502z"/></g><defs><clipPath id="clip0_153:253"><path fill="#fff" transform="translate(0 .32)" d="M0 0h20v20.069H0z"/></clipPath></defs></svg>