<svg width="13" height="20" fill="none" xmlns="http://www.w3.org/2000/svg"><path clip-rule="evenodd" d="M5.124 1.767A5.18 5.18 0 018.75.294h2.75a.55.55 0 01.55.55v3.595a.55.55 0 01-.55.55H8.75a.38.38 0 00-.263.106.34.34 0 00-.104.243v2.146H11.5a.55.55 0 01.533.686l-.917 3.596a.55.55 0 01-.533.414h-2.2v6.64a.55.55 0 01-.55.55H4.167a.55.55 0 01-.55-.55v-6.64h-2.2a.55.55 0 01-.55-.55V8.034a.55.55 0 01.55-.55h2.2V5.338a5 5 0 011.507-3.57zm3.626-.373a4.08 4.08 0 00-2.856 1.159 3.9 3.9 0 00-1.177 2.785v2.696a.55.55 0 01-.55.55h-2.2v2.496h2.2a.55.55 0 01.55.55v6.64h2.566v-6.64a.55.55 0 01.55-.55h2.323l.636-2.496H7.833a.55.55 0 01-.55-.55V5.338c0-.388.158-.758.434-1.028s.647-.42 1.033-.42h2.2V1.393h-2.2z"/></svg>