<svg width="128" height="24" fill="none" xmlns="http://www.w3.org/2000/svg"><g clip-path="url(#clip0)" fill="#111"><path d="M1.603 22.051A9.498 9.498 0 010 16.308V7.795a9.63 9.63 0 011.502-5.846C2.604.615 4.307 0 6.811 0s4.106.615 5.108 1.744a7.487 7.487 0 011.502 5.025v2.052H8.513V6.46a5.157 5.157 0 00-.3-2.05 1.463 1.463 0 00-.579-.63 1.415 1.415 0 00-.823-.191c-.701 0-1.202.205-1.403.718a6.774 6.774 0 00-.3 2.256v10.974a4.334 4.334 0 00.4 2.154c.2.513.702.718 1.403.718.7 0 1.102-.205 1.302-.718.228-.693.33-1.423.3-2.154v-2.461h4.908v2.051a7.98 7.98 0 01-1.502 5.128c-1.002 1.231-2.705 1.847-5.108 1.847-2.404-.103-4.207-.718-5.208-2.052zM19.33.308h5.71l4.206 23.384h-4.607l-.802-4.923h-3.305l-.801 4.923h-4.708L19.33.308zm4.107 15.384l-1.202-9.128-1.202 9.128h2.404zm9.314-11.487h-3.405V.308h11.918v3.794H37.86v19.59h-5.108V4.205zM50.379.308h8.814v2.461h-5.71v7.692h4.608v2.36h-4.607v8.615h5.709v2.359h-8.914V.308h.1zm11.418 0H64l6.51 15.487V.308h2.604v23.384h-2.003l-6.61-16v16h-2.705V.308zm14.322 0h8.814v2.461h-5.71v7.692h4.608v2.36h-4.607v8.615h5.709v2.359h-8.814V.308zm11.418 0h4.607a7.874 7.874 0 015.108 1.436c1.102.923 1.603 2.564 1.603 4.717 0 2.975-.902 4.821-2.805 5.436l3.205 11.693H96.15l-3.004-10.975h-2.504V23.59h-3.205V.308h.1zm4.407 10.05a4.301 4.301 0 002.904-.82c.601-.512.902-1.538.902-3.077a6.775 6.775 0 00-.3-2.256 2.583 2.583 0 00-1.103-1.23 4.473 4.473 0 00-2.203-.411h-1.402v7.692h1.202v.103zm10.917 11.591a10.575 10.575 0 01-1.403-5.95V8.206c-.024-1.486.144-2.97.501-4.41a5.204 5.204 0 011.903-2.667 6.421 6.421 0 013.706-.923c2.103 0 3.606.513 4.507 1.641a7.982 7.982 0 011.402 5.128v.82h-3.004v-.717a15.503 15.503 0 00-.201-2.564 2.056 2.056 0 00-.801-1.334 3.04 3.04 0 00-1.903-.512 2.955 2.955 0 00-2.003.615 2.349 2.349 0 00-.801 1.641 19.734 19.734 0 00-.201 2.77v8.717a9.527 9.527 0 00.601 3.898c.401.82 1.202 1.128 2.404 1.128a2.38 2.38 0 001.384-.243 2.457 2.457 0 001.02-.988 9.635 9.635 0 00.701-4.102V14.46h-2.905v-2.359h5.809v11.59h-2.003l-.3-2.666a4.186 4.186 0 01-1.554 2.21 4.016 4.016 0 01-2.553.764 4.907 4.907 0 01-2.406-.47 5.037 5.037 0 01-1.9-1.581zm17.127-6.462L115.08.41h3.005l3.505 11.282L124.995.41H128l-4.908 15.077v8.205h-3.004v-8.205h-.1z"/></g><defs><clipPath id="clip0"><path fill="#fff" d="M0 0h128v24H0z"/></clipPath></defs></svg>