<svg xmlns="http://www.w3.org/2000/svg" xmlns:xlink="http://www.w3.org/1999/xlink"><defs>
    <clipPath id="clip0_88:473">
      <rect width="16" height="16" fill="white" transform="translate(0 0.010498)"/>
    </clipPath>
  
<clipPath id="clip0_153:253">
<rect width="20" height="20.0688" fill="white" transform="translate(0 0.320435)"/>
</clipPath>

<clipPath id="clip0">
<rect width="128" height="24" fill="white"/>
</clipPath>
</defs><symbol id="arrow" viewBox="0 0 24 12">
<line y1="6" x2="18" y2="6" stroke="black" stroke-width="2"/>
<path d="M24 6L17.25 11.1962L17.25 0.803848L24 6Z" fill="black"/>
</symbol><symbol id="htmlacademy" viewBox="0 0 27 35">
  <path d="M13.6426 0.0262517L13.5 0.010498L0 1.41783V26.0234L13.5 34.0105L27 26.0234V1.41783L13.6426 0.0262517ZM25.2344 25.0256L13.5 31.9678L1.76561 25.0256V14.9398L13.4507 21.8556L13.4701 23.1089L5.45351 18.3653L5.44295 19.5906L13.4894 24.399L13.5088 25.6855L5.46408 20.9279L5.45351 22.1532L13.5 26.9616L21.6239 22.1287V20.9034V16.9195L25.2432 14.77L25.2344 25.0256ZM25.2344 13.4624L22.0147 15.3424L20.5325 16.2176L13.4666 12.0306L13.456 13.2559L19.4957 16.8285L19.4429 16.86L19.3126 16.9352L18.4536 17.4271L13.4666 14.4794L13.456 15.7047L17.3921 18.0327L16.4591 18.6419L16.438 18.6541L13.4666 16.9125L13.456 18.1378L15.4029 19.272L13.4155 20.4588L1.7973 13.5867L13.4349 6.62881L25.2344 13.4624ZM25.2344 12.2371L13.4401 5.32125L1.76561 12.2301V3.0002L13.5 1.77491L25.2344 3.0002V12.2371Z"/>
</symbol><symbol id="icon_email" viewBox="0 0 20 15">
<line x1="1.65" y1="5.84766" x2="1.65" y2="13.8477" stroke="#222222" stroke-width="1.3"/>
<line x1="18.65" y1="5.84766" x2="18.65" y2="13.8477" stroke="#222222" stroke-width="1.3"/>
<line x1="1" y1="13.1977" x2="19" y2="13.1977" stroke="#222222" stroke-width="1.3"/>
<line x1="1" y1="1.19766" x2="19" y2="1.19766" stroke="#222222" stroke-width="1.3"/>
<path d="M18.35 3.02975L10 9.5242L1.65 3.02975V1.49766H4.5L10 1.49766H15H18.35V3.02975Z" stroke="#222222" stroke-width="1.3"/>
</symbol><symbol id="icon_facebook" viewBox="0 0 13 20">
  <path fill-rule="evenodd" clip-rule="evenodd" d="M5.12403 1.76731C6.08751 0.822568 7.39201 0.293701 8.75 0.293701H11.5C11.8038 0.293701 12.05 0.539945 12.05 0.843701V4.43904C12.05 4.7428 11.8038 4.98905 11.5 4.98905H8.75C8.64931 4.98905 8.55486 5.02837 8.48689 5.09502C8.41929 5.16131 8.38334 5.24889 8.38334 5.33788V7.48439H11.5C11.6698 7.48439 11.8301 7.56283 11.9343 7.69692C12.0385 7.83102 12.0749 8.00572 12.033 8.17027L11.1163 11.7656C11.0542 12.0092 10.8348 12.1797 10.5833 12.1797H8.38334V18.8204C8.38334 19.1242 8.13709 19.3704 7.83334 19.3704H4.16667C3.86291 19.3704 3.61667 19.1242 3.61667 18.8204V12.1797H1.41667C1.11291 12.1797 0.866669 11.9335 0.866669 11.6297V8.03439C0.866669 7.73063 1.11291 7.48439 1.41667 7.48439H3.61667V5.33788C3.61667 3.99656 4.16018 2.7124 5.12403 1.76731ZM8.75 1.3937C7.67685 1.3937 6.64977 1.81182 5.89417 2.55273C5.13893 3.29327 4.71667 4.29534 4.71667 5.33788V8.03439C4.71667 8.33815 4.47043 8.58439 4.16667 8.58439H1.96667V11.0797H4.16667C4.47043 11.0797 4.71667 11.326 4.71667 11.6297V18.2704H7.28334V11.6297C7.28334 11.326 7.52958 11.0797 7.83334 11.0797H10.156L10.7922 8.58439H7.83334C7.52958 8.58439 7.28334 8.33815 7.28334 8.03439V5.33788C7.28334 4.9501 7.44054 4.58044 7.71675 4.3096C7.9926 4.03912 8.36447 3.88905 8.75 3.88905H10.95V1.3937H8.75Z"/>
</symbol><symbol id="icon_gift" viewBox="0 0 78 80">
<path d="M64.0156 34.7129H14.031C12.2766 34.7129 10.8494 33.2954 10.8494 31.5526V22.0845C10.8494 20.3417 12.2766 18.9236 14.031 18.9236H64.0149C65.7687 18.9236 67.1953 20.3417 67.1953 22.0845V31.5533C67.1959 33.2954 65.7693 34.7129 64.0156 34.7129ZM14.031 21.3457C13.6276 21.3457 13.2869 21.6842 13.2869 22.0845V31.5533C13.2869 31.9602 13.6208 32.2914 14.031 32.2914H64.0149C64.4244 32.2914 64.7578 31.9602 64.7578 31.5533V22.0845C64.7578 21.6836 64.4171 21.3457 64.0149 21.3457H14.031Z" fill="white"/>
<path d="M57.0447 67.1491H20.999C17.6218 67.1491 14.8741 64.4193 14.8741 61.0628V33.5018C14.8741 32.8333 15.4201 32.2908 16.0929 32.2908C16.7656 32.2908 17.3116 32.8333 17.3116 33.5018V61.0628C17.3116 63.0835 18.9661 64.7269 20.999 64.7269H57.0447C59.077 64.7269 60.7308 63.0835 60.7308 61.0628V33.5018C60.7308 32.8333 61.2768 32.2908 61.9496 32.2908C62.6223 32.2908 63.1683 32.8333 63.1683 33.5018V61.0628C63.1683 64.4193 60.4213 67.1491 57.0447 67.1491Z" fill="white"/>
<path d="M39.0225 67.1491C38.3498 67.1491 37.8038 66.6071 37.8038 65.938V33.5018C37.8038 32.8333 38.3498 32.2908 39.0225 32.2908C39.6953 32.2908 40.2413 32.8333 40.2413 33.5018V65.9374C40.2413 66.6071 39.6959 67.1491 39.0225 67.1491Z" fill="white"/>
<path d="M23.8113 21.3416C19.9966 19.2876 18.5731 14.533 20.6383 10.7417C22.7022 6.95225 27.4864 5.53711 31.303 7.58746C37.117 10.7169 40.2565 19.4475 40.3869 19.8175L38.0877 20.621C38.0585 20.5387 35.1256 12.3997 30.1433 9.71773C27.5078 8.30199 24.2062 9.27933 22.7821 11.8946C21.3567 14.5124 22.339 17.7944 24.9734 19.2119L23.8113 21.3416Z" fill="white"/>
<path d="M54.2313 21.3416L53.071 19.2113C54.3477 18.524 55.2782 17.385 55.6926 16.0038C56.1063 14.622 55.9534 13.1626 55.2617 11.8952C54.5719 10.6266 53.4263 9.70258 52.0363 9.29142C50.6457 8.88026 49.1783 9.03164 47.9023 9.71771C42.9201 12.399 39.9871 20.538 39.9579 20.6204L37.6587 19.8168C37.7891 19.4469 40.928 10.7162 46.7421 7.58744C48.5897 6.59315 50.7182 6.37394 52.7316 6.96979C54.7468 7.56503 56.4061 8.90508 57.4061 10.7417C58.4073 12.5777 58.6285 14.6916 58.0289 16.6941C57.4287 18.696 56.0801 20.3461 54.2313 21.3416Z" fill="white"/>
<path d="M61.9496 50.9317H16.0929C15.4201 50.9317 14.8741 50.3891 14.8741 49.7206C14.8741 49.0521 15.4201 48.5095 16.0929 48.5095H61.9496C62.6223 48.5095 63.1683 49.0521 63.1683 49.7206C63.1683 50.3891 62.6229 50.9317 61.9496 50.9317Z" fill="white"/>
</symbol><symbol id="icon_instagram" viewBox="0 0 16 17">
  <g clip-path="url(#clip0_88:473)">
    <path d="M7.98438 0.072998C9.31771 0.072998 10.4062 0.088623 11.25 0.119873C11.9688 0.151123 12.6094 0.276123 13.1719 0.494873C13.7135 0.703206 14.1823 1.00529 14.5781 1.40112C14.974 1.79696 15.276 2.26571 15.4844 2.80737C15.7031 3.36987 15.8281 4.0105 15.8594 4.72925C15.8906 5.573 15.9062 6.66154 15.9062 7.99487C15.9062 9.32821 15.8906 10.4167 15.8594 11.2605C15.8281 11.9792 15.7031 12.6199 15.4844 13.1824C15.276 13.724 14.974 14.1928 14.5781 14.5886C14.1823 14.9845 13.7135 15.2865 13.1719 15.4949C12.6094 15.7136 11.9688 15.8386 11.25 15.8699C10.4062 15.9011 9.31771 15.9167 7.98438 15.9167C6.65104 15.9167 5.5625 15.9011 4.71875 15.8699C4 15.8386 3.35938 15.7136 2.79688 15.4949C2.25521 15.2865 1.78646 14.9845 1.39062 14.5886C0.994792 14.1928 0.692708 13.724 0.484375 13.1824C0.265625 12.6199 0.140625 11.9792 0.109375 11.2605C0.078125 10.4167 0.0625 9.32821 0.0625 7.99487C0.0625 6.66154 0.078125 5.573 0.109375 4.72925C0.140625 4.0105 0.265625 3.36987 0.484375 2.80737C0.692708 2.26571 0.994792 1.79696 1.39062 1.40112C1.78646 1.00529 2.25521 0.703206 2.79688 0.494873C3.35938 0.276123 4 0.151123 4.71875 0.119873C5.5625 0.088623 6.65104 0.072998 7.98438 0.072998ZM7.98438 1.10425C6.59896 1.10425 5.46875 1.11987 4.59375 1.15112C4.03125 1.17196 3.51042 1.27091 3.03125 1.448C2.28125 1.7605 1.75 2.29175 1.4375 3.04175C1.26042 3.52091 1.16146 4.04175 1.14062 4.60425C1.10938 5.47925 1.09375 6.60946 1.09375 7.99487C1.09375 9.38029 1.10938 10.5105 1.14062 11.3855C1.16146 11.948 1.26042 12.4688 1.4375 12.948C1.75 13.698 2.28125 14.2292 3.03125 14.5417C3.51042 14.7188 4.03125 14.8178 4.59375 14.8386C5.46875 14.8699 6.59896 14.8855 7.98438 14.8855C9.36979 14.8855 10.5 14.8699 11.375 14.8386C11.9375 14.8178 12.4583 14.7188 12.9375 14.5417C13.6875 14.2292 14.2188 13.698 14.5312 12.948C14.7083 12.4688 14.8073 11.948 14.8281 11.3855C14.8594 10.5105 14.875 9.38029 14.875 7.99487C14.875 6.60946 14.8594 5.47925 14.8281 4.60425C14.8073 4.04175 14.7083 3.52091 14.5312 3.04175C14.2188 2.29175 13.6875 1.7605 12.9375 1.448C12.4583 1.27091 11.9375 1.17196 11.375 1.15112C10.5 1.11987 9.36979 1.10425 7.98438 1.10425ZM7.98438 11.1667C8.85938 11.1667 9.60677 10.8569 10.2266 10.2371C10.8464 9.61727 11.1562 8.86987 11.1562 7.99487C11.1562 7.11987 10.8464 6.37248 10.2266 5.75269C9.60677 5.13289 8.85938 4.823 7.98438 4.823C7.10938 4.823 6.36198 5.13289 5.74219 5.75269C5.1224 6.37248 4.8125 7.11987 4.8125 7.99487C4.8125 8.86987 5.1224 9.61727 5.74219 10.2371C6.36198 10.8569 7.10938 11.1667 7.98438 11.1667ZM7.98438 3.93237C9.10938 3.93237 10.0677 4.32821 10.8594 5.11987C11.651 5.91154 12.0469 6.86987 12.0469 7.99487C12.0469 9.11987 11.651 10.0782 10.8594 10.8699C10.0677 11.6615 9.10938 12.0574 7.98438 12.0574C6.85938 12.0574 5.90104 11.6615 5.10938 10.8699C4.31771 10.0782 3.92188 9.11987 3.92188 7.99487C3.92188 6.86987 4.31771 5.91154 5.10938 5.11987C5.90104 4.32821 6.85938 3.93237 7.98438 3.93237ZM13.1719 3.77612C13.1719 4.03654 13.0781 4.25789 12.8906 4.44019C12.7031 4.62248 12.474 4.71362 12.2031 4.71362C11.9427 4.71362 11.7214 4.62248 11.5391 4.44019C11.3568 4.25789 11.2656 4.03654 11.2656 3.77612C11.2656 3.50529 11.3568 3.27612 11.5391 3.08862C11.7214 2.90112 11.9427 2.80737 12.2031 2.80737C12.4635 2.80737 12.6901 2.90373 12.8828 3.09644C13.0755 3.28914 13.1719 3.51571 13.1719 3.77612Z"/>
  </g>
  
</symbol><symbol id="icon_phone" viewBox="0 0 20 21">
<g clip-path="url(#clip0_153:253)">
<path d="M17.9 9.75275H9.39999V10.9569H17.9L15.8 13.0641L16.7 13.9672L19.8 10.8565C19.8974 10.7263 19.95 10.5678 19.95 10.405C19.95 10.2421 19.8974 10.0837 19.8 9.95344L16.7 6.84277L15.8 7.74587L17.9 9.75275Z" fill="black"/>
<path d="M8.10001 19.7872V13.5659C8.08846 13.41 8.02154 13.2635 7.91142 13.153C7.80131 13.0425 7.65531 12.9754 7.50001 12.9638H3.10001C3.10516 13.2815 3.23325 13.5848 3.45718 13.8095C3.68112 14.0342 3.98336 14.1627 4.30001 14.1679H6.80001V19.1851H3.10001C2.86326 19.2 2.62591 19.1676 2.40176 19.0896C2.17762 19.0117 1.97115 18.8898 1.79436 18.7311C1.61757 18.5723 1.47399 18.3799 1.37196 18.165C1.26992 17.9501 1.21148 17.717 1.20001 17.4793V3.43111C1.19181 2.96681 1.36516 2.51774 1.68292 2.18013C2.00069 1.84252 2.43758 1.64322 2.90001 1.62492H6.80001V6.64212H4.40001C4.08336 6.64729 3.78112 6.77581 3.55718 7.00052C3.33325 7.22523 3.20516 7.52851 3.20001 7.84625H7.60001C7.75531 7.83466 7.90131 7.76751 8.01142 7.65701C8.12154 7.54651 8.18846 7.40002 8.20001 7.24418V0.922517C8.15232 0.76584 8.06117 0.626022 7.93721 0.519407C7.81325 0.412792 7.66161 0.343785 7.50001 0.320453H3.10001C2.70599 0.307054 2.31321 0.371716 1.94411 0.510744C1.57501 0.649771 1.23684 0.860436 0.948933 1.13069C0.661026 1.40095 0.42903 1.7255 0.266207 2.08579C0.103385 2.44608 0.01293 2.83504 1.46306e-05 3.23043V17.1782C-0.0289644 17.5773 0.0246504 17.978 0.157487 18.3552C0.290324 18.7324 0.499509 19.078 0.771886 19.3701C1.04426 19.6623 1.37394 19.8947 1.74019 20.0529C2.10643 20.211 2.50132 20.2913 2.90001 20.2889H7.50001C7.5735 20.304 7.64943 20.3022 7.72216 20.2839C7.7949 20.2655 7.86259 20.2309 7.92021 20.1828C7.97783 20.1346 8.02391 20.074 8.05504 20.0055C8.08616 19.9371 8.10153 19.8624 8.10001 19.7872Z" fill="black"/>
</g>

</symbol><symbol id="icon_vkontakte" viewBox="0 0 21 13">
  <path d="M0.0700912 1.99266C0.0700912 1.37082 0.493211 1.03552 1.33945 0.986745L4.60039 1.00503C4.81925 1.00503 4.96515 1.09648 5.03811 1.27938C5.37368 2.19385 5.74938 2.98334 6.16521 3.64785C6.58103 4.31237 7.12453 5.07748 7.79568 5.94317C7.85404 6.05291 7.94888 6.10778 8.08019 6.10778C8.18233 6.10778 8.26257 6.0651 8.32093 5.97975L8.38659 5.77857L8.40848 2.6145C8.40848 2.39503 8.34647 2.24871 8.22245 2.17556C8.09843 2.1024 7.86863 2.04753 7.53305 2.01095C7.27043 1.97437 7.13912 1.84025 7.13912 1.60859C7.13912 1.55981 7.14641 1.52323 7.161 1.49885C7.4674 0.706308 8.34282 0.310037 9.78726 0.310037L11.0129 0.291748C11.5673 0.291748 12.0269 0.407581 12.3916 0.639247C12.7564 0.870912 12.9388 1.2367 12.9388 1.73661V5.88831C13.0409 5.94927 13.1357 5.97975 13.2233 5.97975C13.4421 5.97975 13.6318 5.87002 13.7923 5.65054C15.3973 3.77283 16.2654 2.51696 16.3967 1.88293C16.3967 1.87073 16.4113 1.84025 16.4405 1.79148C16.5426 1.60859 16.7104 1.45008 16.9438 1.31595C17.1773 1.18183 17.3815 1.09039 17.5566 1.04161C17.615 1.01723 17.6806 1.00503 17.7536 1.00503H21.1459L21.3647 1.02332C21.6565 1.02332 21.8827 1.13916 22.0432 1.37082C22.1015 1.44398 22.1416 1.52323 22.1635 1.60859C22.1854 1.69394 22.2 1.77929 22.2073 1.86464C22.2146 1.94999 22.2182 1.99876 22.2182 2.01095V2.13898C22.1161 2.63889 21.8571 3.17233 21.4413 3.7393C21.0255 4.30627 20.4966 4.91897 19.8546 5.57739C19.2126 6.2358 18.8114 6.66865 18.6509 6.87593C18.5196 7.02225 18.4539 7.15637 18.4539 7.2783C18.4539 7.37584 18.5123 7.48558 18.629 7.60751L21.8243 10.9728C21.9994 11.1678 22.0869 11.3812 22.0869 11.6129C22.0869 11.8933 21.9556 12.125 21.693 12.3079C21.4304 12.4908 21.1167 12.5944 20.7519 12.6188L20.3799 12.6371H17.0533C17.0387 12.6371 17.0095 12.6401 16.9657 12.6462C16.9219 12.6523 16.8928 12.6554 16.8782 12.6554C16.5572 12.6554 16.2581 12.5396 15.9809 12.3079C15.8787 12.2103 15.193 11.491 13.9236 10.1497C13.8507 10.0644 13.7485 9.98513 13.6172 9.91197C13.5589 10.1071 13.4823 10.3875 13.3874 10.7533C13.2926 11.1191 13.2233 11.3812 13.1795 11.5397L13.1139 11.8506C12.968 12.2774 12.6616 12.5335 12.1947 12.6188L11.8883 12.6371H9.74349C8.53249 12.6371 7.32514 12.1738 6.12144 11.2471C4.91773 10.3204 3.8344 9.12248 2.87144 7.65323C1.90848 6.18398 1.01117 4.47392 0.179519 2.52306C0.106567 2.36455 0.0700912 2.18775 0.0700912 1.99266ZM13.2233 6.72962C12.9169 6.72962 12.6397 6.65951 12.3916 6.51929C12.1436 6.37907 12.0196 6.18703 12.0196 5.94317V1.73661C12.0196 1.49275 11.9466 1.319 11.8007 1.21536C11.6548 1.11172 11.3995 1.0599 11.0347 1.0599L9.78726 1.09648C9.15988 1.09648 8.68569 1.18793 8.36471 1.37082C9.00668 1.62687 9.32767 2.04143 9.32767 2.6145V5.83344C9.29849 6.13826 9.15258 6.39126 8.88996 6.59245C8.62733 6.79363 8.33552 6.89422 8.01454 6.89422C7.57683 6.89422 7.24125 6.71742 7.0078 6.36383C5.86975 4.92506 5.02351 3.55945 4.46908 2.267L4.27211 1.79148L1.36134 1.77319C1.17166 1.77319 1.06588 1.78233 1.044 1.80062C1.02211 1.81891 1.01117 1.87073 1.01117 1.95608C1.01117 2.06582 1.02576 2.18165 1.05494 2.30358L1.51454 3.32779C2.74013 5.97366 4.07149 8.05865 5.50864 9.58276C6.94579 11.1069 8.35741 11.8689 9.74349 11.8689H11.932C12.0196 11.8689 12.0852 11.8476 12.129 11.8049C12.1728 11.7623 12.2093 11.6799 12.2384 11.558L12.2822 11.3751L12.698 9.76566C12.8148 9.54619 12.9169 9.39987 13.0044 9.32671C13.1649 9.19259 13.3546 9.12553 13.5735 9.12553C13.9236 9.12553 14.2811 9.30233 14.6459 9.65592L16.5061 11.6312C16.6228 11.7897 16.7469 11.8689 16.8782 11.8689H20.4893C20.927 11.8689 21.1459 11.7775 21.1459 11.5946C21.1459 11.5336 21.124 11.4727 21.0802 11.4117L17.9068 8.10132C17.6588 7.84527 17.5347 7.57093 17.5347 7.2783C17.5347 6.98567 17.6515 6.70523 17.8849 6.43699C18.0746 6.19313 18.443 5.78771 18.9901 5.22074C19.5373 4.65377 20.0151 4.12338 20.4236 3.62956C20.8322 3.13575 21.1021 2.68766 21.2334 2.28529L21.299 2.04753C21.2845 2.02314 21.2772 1.98352 21.2772 1.92865C21.2772 1.87378 21.2699 1.82806 21.2553 1.79148H17.8193C17.6004 1.86464 17.4253 1.97437 17.294 2.12069L17.1627 2.46819C16.7979 3.3095 15.8423 4.60805 14.2957 6.36383C13.9893 6.60769 13.6318 6.72962 13.2233 6.72962Z"/>
</symbol><symbol id="logo-name" viewBox="0 0 128 24">
<g clip-path="url(#clip0)">
<path d="M1.6025 22.0513C0.468327 20.3682 -0.0946878 18.3503 -3.57628e-07 16.3077V7.79487C-0.137348 5.73031 0.390413 3.67661 1.50235 1.94872C2.60407 0.615385 4.30673 0 6.81064 0C9.31455 0 10.9171 0.615385 11.9186 1.74359C13.006 3.17255 13.5409 4.96181 13.421 6.76923V8.82051H8.5133V6.46154C8.55294 5.76385 8.45062 5.06533 8.21283 4.41026C8.08573 4.14583 7.88428 3.9264 7.6344 3.78018C7.38452 3.63395 7.09763 3.56763 6.81064 3.58974C6.10955 3.58974 5.60876 3.79487 5.40845 4.30769C5.18187 5.03643 5.08022 5.79984 5.10798 6.5641V17.5385C5.05509 18.2799 5.19324 19.0227 5.50861 19.6923C5.70892 20.2051 6.2097 20.4103 6.9108 20.4103C7.61189 20.4103 8.01252 20.2051 8.21283 19.6923C8.44055 18.9992 8.54239 18.2692 8.5133 17.5385V15.0769H13.421V17.1282C13.5228 18.9651 12.9911 20.7803 11.9186 22.2564C10.9171 23.4872 9.2144 24.1026 6.81064 24.1026C4.40689 24 2.60407 23.3846 1.6025 22.0513Z" fill="#111111"/>
<path d="M19.3302 0.307617H25.0391L29.2457 23.6922H24.6385L23.8372 18.7692H20.532L19.7308 23.6922H15.0234L19.3302 0.307617ZM23.4366 15.6922L22.2347 6.56403L21.0328 15.6922H23.4366Z" fill="#111111"/>
<path d="M32.7511 4.20505H29.3458V0.307617H41.2645V4.10249H37.8591V23.6922H32.7511V4.20505Z" fill="#111111"/>
<path d="M50.3787 0.307617H59.1925V2.76916H53.4836V10.4615H58.0908V12.8204H53.4836V21.4358H59.1925V23.7948H50.2786V0.307617H50.3787Z" fill="#111111"/>
<path d="M61.7965 0.307617H64L70.5101 15.7948V0.307617H73.1142V23.6922H71.1111L64.5007 7.69223V23.6922H61.7965V0.307617Z" fill="#111111"/>
<path d="M76.1189 0.307617H84.9327V2.76916H79.2237V10.4615H83.8309V12.8204H79.2237V21.4358H84.9327V23.7948H76.1189V0.307617Z" fill="#111111"/>
<path d="M87.5368 0.3076H92.144C93.9564 0.179397 95.7575 0.685711 97.252 1.7435C98.3537 2.66657 98.8545 4.3076 98.8545 6.46145C98.8545 9.4358 97.9531 11.282 96.0501 11.8973L99.2551 23.5897H96.1503L93.1456 12.6153H90.6416V23.5897H87.4366V0.3076H87.5368ZM91.9437 10.3589C92.9762 10.446 94.0054 10.1553 94.8482 9.53837C95.4492 9.02555 95.7496 7.99991 95.7496 6.46145C95.7774 5.69719 95.6757 4.93378 95.4492 4.20504C95.2237 3.68211 94.8366 3.24964 94.3474 2.97427C93.6576 2.65236 92.9003 2.51137 92.144 2.56401H90.7418V10.2563H91.9437V10.3589Z" fill="#111111"/>
<path d="M102.861 21.9487C101.82 20.1554 101.331 18.0821 101.458 15.9999V8.20507C101.434 6.71875 101.602 5.23567 101.959 3.79481C102.294 2.71811 102.962 1.78218 103.862 1.12815C104.981 0.450275 106.271 0.128917 107.568 0.20507C109.671 0.20507 111.174 0.71789 112.075 1.8461C113.112 3.33582 113.608 5.14977 113.477 6.9743V7.79481H110.473V7.07687C110.477 6.21789 110.41 5.36008 110.272 4.51276C110.188 3.97732 109.9 3.49792 109.471 3.17943C108.908 2.80104 108.24 2.62099 107.568 2.66661C106.85 2.61949 106.139 2.83785 105.565 3.28199C105.329 3.48529 105.137 3.73569 104.999 4.01787C104.861 4.30004 104.781 4.60805 104.764 4.92302C104.632 5.83993 104.565 6.76543 104.563 7.69225V16.4102C104.49 17.7384 104.694 19.0674 105.164 20.3076C105.565 21.1281 106.366 21.4358 107.568 21.4358C108.043 21.4964 108.524 21.4119 108.952 21.1929C109.379 20.9739 109.734 20.6302 109.972 20.2051C110.501 18.9081 110.741 17.5064 110.673 16.1025V14.4615H107.768V12.1025H113.577V23.6923H111.574L111.274 21.0256C111.011 21.9193 110.464 22.6975 109.72 23.2364C108.976 23.7753 108.078 24.0441 107.167 23.9999C106.34 24.0498 105.513 23.8885 104.761 23.5304C104.01 23.1724 103.357 22.6289 102.861 21.9487Z" fill="#111111"/>
<path d="M119.988 15.4871L115.08 0.410156H118.085L121.59 11.6922L124.995 0.410156H128L123.092 15.4871V23.6922H120.088V15.4871H119.988Z" fill="#111111"/>
</g>

</symbol></svg>