<svg width="70" height="97" fill="none" xmlns="http://www.w3.org/2000/svg"><g clip-path="url(#clip0_2403:490)"><path d="M54.84 0h-.38A3.5 3.5 0 0053 1.59 15.54 15.54 0 0051.71 5a1.63 1.63 0 01-1.48 1.34A7.34 7.34 0 0045 10.12a27.31 27.31 0 00-1.85 4c-1.42 3.68-2.51 7.48-3.85 11.19C38.67 27 38.64 27 36.74 27c-2.27 0-2.11-.35-2.14 2.15 0 .79.24 1.19 1.08 1.15.26 0 .65-.13.75.21.1.34-.24.49-.44.69a9 9 0 01-4.33 2.44c-1.9.51-3.84.91-5.69 1.53-4.75 1.59-9.14 3.81-12.56 7.57a28.002 28.002 0 00-4.74 7.84C5 59.22 3.22 68.32 1.84 77.51c-.65 4.31-1.11 8.64-1.46 13C.2 92.65 0 94.82 0 97h33.33a2.18 2.18 0 00-.23-1.28 5 5 0 00-3.83-3.07c-.7-.16-.78-.37-.35-.92a10.348 10.348 0 001.59-3.1c1.63-4.81 2.26-9.83 3.05-14.8A30.001 30.001 0 0137 63a21.6 21.6 0 015.59-6.37c.83-.63.86-.63 1 .44.1.71.12 1.44.17 2.16.3 4.724.24 9.465-.18 14.18a61.669 61.669 0 00-.15 11A75.16 75.16 0 0045.7 97H59a5.41 5.41 0 00-4.24-4.44 9 9 0 00-3.76.2c-.6.14-.85 0-.9-.65a56.351 56.351 0 011-15.82 177.734 177.734 0 003.06-18.18 17.75 17.75 0 012.28-7c1.19-2.12 2.23-4.32 3.4-6.45a5.871 5.871 0 00.42-5.19c-.27-.71-.53-1.43-.86-2.11-1-1.95-2-3.88-2.92-5.85-.49-1-.38-1.12.71-1.15 1.63 0 1.63 0 1.66-1.64v-.66c0-.69-.26-1.07-1-1h-1.52c-.69 0-.89-.29-.72-1a6.24 6.24 0 015.13-4.43 22 22 0 016.62.43 1 1 0 001.25-.64c.4-1 .84-2 1.29-3a1 1 0 00-.1-1.14C66.6 13.22 63.13 9.43 58.4 7a1.49 1.49 0 01-.88-1.12 19.599 19.599 0 00-1.27-4.16A3.5 3.5 0 0054.84 0z" fill="#000"/></g><defs><clipPath id="clip0_2403:490"><path fill="#fff" d="M0 0h70v97H0z"/></clipPath></defs></svg>