<svg width="80" height="80" fill="none" xmlns="http://www.w3.org/2000/svg"><path fill="#68B738" d="M0 0h80v80H0z"/><g clip-path="url(#clip0)"><path d="M52.844 26.767c-.1-.45-.48-.767-.912-.767h-.005c-4.938.033-16.945.916-21.793 8.38-2.518 3.878-2.735 8.913-.644 14.965.016.047.048.079.07.122-.747 1.973-1.037 3.286-1.044 3.323-.11.54.214 1.072.72 1.188a.88.88 0 00.197.022c.433 0 .822-.321.916-.79.02-.102 2.409-10.373 10.854-16.378.431-.306.547-.927.26-1.387-.288-.46-.87-.585-1.3-.277-4.79 3.405-7.739 8.008-9.473 11.656-1.242-4.578-.916-8.377.986-11.305 3.743-5.764 12.622-7.154 17.982-7.448-1.153 1.801-2.413 5.103-2.413 10.929 0 3.12-.83 5.522-2.465 7.14-2.62 2.591-6.88 2.834-9.993 2.584-.518-.045-.967.371-1.006.922-.04.55.347 1.03.863 1.072.623.051 1.29.082 1.981.082 3.17 0 6.87-.663 9.43-3.194 2.034-2.011 3.065-4.906 3.065-8.605 0-9.099 3.216-11.096 3.232-11.105.39-.209.594-.677.492-1.129z" fill="#fff"/></g><defs><clipPath id="clip0"><path fill="#fff" transform="translate(25 24)" d="M0 0h30v32H0z"/></clipPath></defs></svg>0.718C35.2675 50.769 35.9331 50.8 36.625 50.8C39.7956 50.8 43.4941 50.137 46.0544 47.606C48.0887 45.595 49.12 42.7 49.12 39.001C49.12 29.902 52.3356 27.905 52.3516 27.896C52.7416 27.687 52.9459 27.219 52.8437 26.767Z" fill="white"/>
</g>
<defs>
<clipPath id="clip0">
<rect width="30" height="32" fill="white" transform="translate(25 24)"/>
</clipPath>
</defs>
</svg>
