<svg width="80" height="80" fill="none" xmlns="http://www.w3.org/2000/svg"><path fill="#68B738" d="M0 0h80v80H0z"/><path fill-rule="evenodd" clip-rule="evenodd" d="M46.617 25.076a1 1 0 011.09.217c.909.908 2.097 2.878 3.059 5.918C51.737 34.28 52.5 38.508 52.5 44a1 1 0 01-1 1H48v9a1 1 0 11-2 0V26a1 1 0 01.617-.924zM48 43h2.491c-.086-4.816-.786-8.513-1.632-11.186-.278-.88-.57-1.642-.859-2.295V43zM34 25a1 1 0 011 1v28a1 1 0 11-2 0V26a1 1 0 011-1z" fill="#fff"/><path fill-rule="evenodd" clip-rule="evenodd" d="M29.5 25a1 1 0 011 1v5.5c0 .557.192 1.315.7 1.917.48.566 1.314 1.083 2.8 1.083a1 1 0 110 2c-2.015 0-3.43-.733-4.326-1.792A5.068 5.068 0 0128.5 31.5V26a1 1 0 011-1z" fill="#fff"/><path fill-rule="evenodd" clip-rule="evenodd" d="M38.5 25a1 1 0 00-1 1v5.5a3.07 3.07 0 01-.7 1.917c-.48.566-1.315 1.083-2.8 1.083a1 1 0 000 2c2.014 0 3.43-.733 4.326-1.792A5.068 5.068 0 0039.5 31.5V26a1 1 0 00-1-1z" fill="#fff"/></svg>