<svg width="13" height="20" viewBox="0 0 13 20" fill="none" xmlns="http://www.w3.org/2000/svg">
  <path fill-rule="evenodd" clip-rule="evenodd"
    d="M5.12403 1.76731C6.08751 0.822568 7.39201 0.293701 8.75 0.293701H11.5C11.8038 0.293701 12.05 0.539945 12.05 0.843701V4.43904C12.05 4.7428 11.8038 4.98905 11.5 4.98905H8.75C8.64931 4.98905 8.55486 5.02837 8.48689 5.09502C8.41929 5.16131 8.38334 5.24889 8.38334 5.33788V7.48439H11.5C11.6698 7.48439 11.8301 7.56283 11.9343 7.69692C12.0385 7.83102 12.0749 8.00572 12.033 8.17027L11.1163 11.7656C11.0542 12.0092 10.8348 12.1797 10.5833 12.1797H8.38334V18.8204C8.38334 19.1242 8.13709 19.3704 7.83334 19.3704H4.16667C3.86291 19.3704 3.61667 19.1242 3.61667 18.8204V12.1797H1.41667C1.11291 12.1797 0.866669 11.9335 0.866669 11.6297V8.03439C0.866669 7.73063 1.11291 7.48439 1.41667 7.48439H3.61667V5.33788C3.61667 3.99656 4.16018 2.7124 5.12403 1.76731ZM8.75 1.3937C7.67685 1.3937 6.64977 1.81182 5.89417 2.55273C5.13893 3.29327 4.71667 4.29534 4.71667 5.33788V8.03439C4.71667 8.33815 4.47043 8.58439 4.16667 8.58439H1.96667V11.0797H4.16667C4.47043 11.0797 4.71667 11.326 4.71667 11.6297V18.2704H7.28334V11.6297C7.28334 11.326 7.52958 11.0797 7.83334 11.0797H10.156L10.7922 8.58439H7.83334C7.52958 8.58439 7.28334 8.33815 7.28334 8.03439V5.33788C7.28334 4.9501 7.44054 4.58044 7.71675 4.3096C7.9926 4.03912 8.36447 3.88905 8.75 3.88905H10.95V1.3937H8.75Z" />
</svg>
