<svg width="16" height="17" viewBox="0 0 16 17" fill="none" xmlns="http://www.w3.org/2000/svg">
  <g clip-path="url(#clip0_88:473)">
    <path
      d="M7.98438 0.072998C9.31771 0.072998 10.4062 0.088623 11.25 0.119873C11.9688 0.151123 12.6094 0.276123 13.1719 0.494873C13.7135 0.703206 14.1823 1.00529 14.5781 1.40112C14.974 1.79696 15.276 2.26571 15.4844 2.80737C15.7031 3.36987 15.8281 4.0105 15.8594 4.72925C15.8906 5.573 15.9062 6.66154 15.9062 7.99487C15.9062 9.32821 15.8906 10.4167 15.8594 11.2605C15.8281 11.9792 15.7031 12.6199 15.4844 13.1824C15.276 13.724 14.974 14.1928 14.5781 14.5886C14.1823 14.9845 13.7135 15.2865 13.1719 15.4949C12.6094 15.7136 11.9688 15.8386 11.25 15.8699C10.4062 15.9011 9.31771 15.9167 7.98438 15.9167C6.65104 15.9167 5.5625 15.9011 4.71875 15.8699C4 15.8386 3.35938 15.7136 2.79688 15.4949C2.25521 15.2865 1.78646 14.9845 1.39062 14.5886C0.994792 14.1928 0.692708 13.724 0.484375 13.1824C0.265625 12.6199 0.140625 11.9792 0.109375 11.2605C0.078125 10.4167 0.0625 9.32821 0.0625 7.99487C0.0625 6.66154 0.078125 5.573 0.109375 4.72925C0.140625 4.0105 0.265625 3.36987 0.484375 2.80737C0.692708 2.26571 0.994792 1.79696 1.39062 1.40112C1.78646 1.00529 2.25521 0.703206 2.79688 0.494873C3.35938 0.276123 4 0.151123 4.71875 0.119873C5.5625 0.088623 6.65104 0.072998 7.98438 0.072998ZM7.98438 1.10425C6.59896 1.10425 5.46875 1.11987 4.59375 1.15112C4.03125 1.17196 3.51042 1.27091 3.03125 1.448C2.28125 1.7605 1.75 2.29175 1.4375 3.04175C1.26042 3.52091 1.16146 4.04175 1.14062 4.60425C1.10938 5.47925 1.09375 6.60946 1.09375 7.99487C1.09375 9.38029 1.10938 10.5105 1.14062 11.3855C1.16146 11.948 1.26042 12.4688 1.4375 12.948C1.75 13.698 2.28125 14.2292 3.03125 14.5417C3.51042 14.7188 4.03125 14.8178 4.59375 14.8386C5.46875 14.8699 6.59896 14.8855 7.98438 14.8855C9.36979 14.8855 10.5 14.8699 11.375 14.8386C11.9375 14.8178 12.4583 14.7188 12.9375 14.5417C13.6875 14.2292 14.2188 13.698 14.5312 12.948C14.7083 12.4688 14.8073 11.948 14.8281 11.3855C14.8594 10.5105 14.875 9.38029 14.875 7.99487C14.875 6.60946 14.8594 5.47925 14.8281 4.60425C14.8073 4.04175 14.7083 3.52091 14.5312 3.04175C14.2188 2.29175 13.6875 1.7605 12.9375 1.448C12.4583 1.27091 11.9375 1.17196 11.375 1.15112C10.5 1.11987 9.36979 1.10425 7.98438 1.10425ZM7.98438 11.1667C8.85938 11.1667 9.60677 10.8569 10.2266 10.2371C10.8464 9.61727 11.1562 8.86987 11.1562 7.99487C11.1562 7.11987 10.8464 6.37248 10.2266 5.75269C9.60677 5.13289 8.85938 4.823 7.98438 4.823C7.10938 4.823 6.36198 5.13289 5.74219 5.75269C5.1224 6.37248 4.8125 7.11987 4.8125 7.99487C4.8125 8.86987 5.1224 9.61727 5.74219 10.2371C6.36198 10.8569 7.10938 11.1667 7.98438 11.1667ZM7.98438 3.93237C9.10938 3.93237 10.0677 4.32821 10.8594 5.11987C11.651 5.91154 12.0469 6.86987 12.0469 7.99487C12.0469 9.11987 11.651 10.0782 10.8594 10.8699C10.0677 11.6615 9.10938 12.0574 7.98438 12.0574C6.85938 12.0574 5.90104 11.6615 5.10938 10.8699C4.31771 10.0782 3.92188 9.11987 3.92188 7.99487C3.92188 6.86987 4.31771 5.91154 5.10938 5.11987C5.90104 4.32821 6.85938 3.93237 7.98438 3.93237ZM13.1719 3.77612C13.1719 4.03654 13.0781 4.25789 12.8906 4.44019C12.7031 4.62248 12.474 4.71362 12.2031 4.71362C11.9427 4.71362 11.7214 4.62248 11.5391 4.44019C11.3568 4.25789 11.2656 4.03654 11.2656 3.77612C11.2656 3.50529 11.3568 3.27612 11.5391 3.08862C11.7214 2.90112 11.9427 2.80737 12.2031 2.80737C12.4635 2.80737 12.6901 2.90373 12.8828 3.09644C13.0755 3.28914 13.1719 3.51571 13.1719 3.77612Z"/>
  </g>
  <defs>
    <clipPath id="clip0_88:473">
      <rect width="16" height="16" fill="white" transform="translate(0 0.010498)" />
    </clipPath>
  </defs>
</svg>
