<svg width="20" height="21" viewBox="0 0 20 21" fill="none" xmlns="http://www.w3.org/2000/svg">
    <path fill-rule="evenodd" clip-rule="evenodd"
      d="M8.10001 13.5659V19.7872C8.10153 19.8624 8.08616 19.9371 8.05504 20.0055C8.02391 20.074 7.97783 20.1346 7.92021 20.1828C7.86259 20.2309 7.7949 20.2655 7.72216 20.2839C7.64943 20.3022 7.5735 20.304 7.50001 20.2889H2.90001C2.50132 20.2913 2.10643 20.211 1.74019 20.0529C1.37394 19.8947 1.04426 19.6623 0.771886 19.3701C0.499509 19.078 0.290324 18.7324 0.157487 18.3552C0.0246504 17.978 -0.0289644 17.5773 1.46306e-05 17.1782V3.23043C0.01293 2.83504 0.103385 2.44608 0.266207 2.08579C0.42903 1.7255 0.661026 1.40095 0.948933 1.13069C1.23684 0.860436 1.57501 0.649771 1.94411 0.510744C2.31321 0.371716 2.70599 0.307054 3.10001 0.320453H7.50001C7.66161 0.343785 7.81325 0.412792 7.93721 0.519407C8.06117 0.626022 8.15232 0.76584 8.20001 0.922517V7.24418C8.18846 7.40002 8.12154 7.54651 8.01142 7.65701C7.90131 7.76751 7.75531 7.83466 7.60001 7.84625H3.20001C3.20516 7.52851 3.33325 7.22523 3.55718 7.00052C3.78112 6.77581 4.08336 6.64729 4.40001 6.64212H6.80001V1.62492H2.90001C2.43758 1.64322 2.00069 1.84252 1.68292 2.18013C1.36516 2.51774 1.19181 2.96681 1.20001 3.43111V17.4793C1.21148 17.717 1.26992 17.9501 1.37196 18.165C1.47399 18.3799 1.61757 18.5723 1.79436 18.7311C1.97115 18.8898 2.17762 19.0117 2.40176 19.0896C2.62591 19.1676 2.86326 19.2 3.10001 19.1851H6.80001V14.1679H4.30001C3.98336 14.1627 3.68112 14.0342 3.45718 13.8095C3.23325 13.5848 3.10516 13.2815 3.10001 12.9638H7.50001C7.65531 12.9754 7.80131 13.0425 7.91142 13.153C8.02154 13.2635 8.08846 13.41 8.10001 13.5659ZM9.39999 9.75275H17.9L15.8 7.74587L16.7 6.84277L19.8 9.95344C19.8974 10.0837 19.95 10.2421 19.95 10.405C19.95 10.5678 19.8974 10.7263 19.8 10.8565L16.7 13.9672L15.8 13.0641L17.9 10.9569H9.39999V9.75275Z"/>
</svg>
